<?xml version="1.0" encoding="iso-8859-1"?>
<!-- Generator: Adobe Illustrator 17.1.0, SVG Export Plug-In . SVG Version: 6.00 Build 0)  -->
<!DOCTYPE svg PUBLIC "-//W3C//DTD SVG 1.1//EN" "http://www.w3.org/Graphics/SVG/1.1/DTD/svg11.dtd">
<svg version="1.1" id="Capa_1" xmlns="http://www.w3.org/2000/svg" xmlns:xlink="http://www.w3.org/1999/xlink" x="0px" y="0px"
	 viewBox="0 0 217.042 217.042" style="enable-background:new 0 0 217.042 217.042;" xml:space="preserve">
<path d="M204.667,194.663H2c-1.104,0-2-0.896-2-2s0.896-2,2-2h33.291c-2.08-1.726-3.751-3.926-4.849-6.433h-15.99
	c-0.021,0-0.044,0-0.067,0H9.583c-1.104,0-2-0.896-2-2s0.896-2,2-2h1.291l-3.19-5.288l-6.535-3.076
	C0.447,171.536,0,170.832,0,170.057v-4.667c0-0.708,0.374-1.363,0.983-1.722l4.524-2.67l2.241-5.155
	c0.24-0.552,0.716-0.967,1.296-1.129l14.917-4.167c0.123-0.034,0.249-0.057,0.376-0.067l51.038-4.142l33.748-13.293
	c0.236-0.099,0.485-0.149,0.733-0.154l29.31-0.987v-4.43h-4.417c-1.104,0-2-0.896-2-2s0.896-2,2-2h16.581c1.104,0,2,0.896,2,2
	s-0.896,2-2,2H150.5v4.256l1.219,0.27c0.03,0.006,0.059,0.012,0.088,0.02l6.481,1.433c0.035,0.007,0.07,0.015,0.104,0.023
	l6.104,1.35l6.586-4.712V118.39c0-1.104,0.896-2,2-2h7.417c1.104,0,2,0.896,2,2v12.285l2.63,3.208l13.525-7.93
	c0.506-0.297,1.115-0.357,1.669-0.163c0.553,0.193,0.995,0.619,1.207,1.165l1.436,3.697l9.445-5.491
	c0.554-0.323,1.228-0.358,1.813-0.101c0.585,0.259,1.012,0.782,1.147,1.408l1.625,7.533c0.03,0.139,0.045,0.28,0.045,0.422v10.342
	c0,0.262-0.051,0.521-0.151,0.763l-3.269,7.918l0.632,4.315l1.78,1.017c0.786,0.449,1.172,1.371,0.942,2.246l-2.125,8.063
	c-0.095,0.361-0.29,0.688-0.561,0.944l-3.375,3.188c-0.199,0.188-0.436,0.334-0.694,0.427l-6.54,2.36
	c-0.025,0.01-0.051,0.019-0.078,0.028l-11.526,4.161c-0.914,4.203-3.271,7.875-6.523,10.467h19.112c1.104,0,2,0.896,2,2
	S205.771,194.663,204.667,194.663z M174.121,190.663c7.926,0,14.375-6.449,14.375-14.375s-6.449-14.375-14.375-14.375
	s-14.375,6.449-14.375,14.375c0,1.821,0.34,3.564,0.961,5.169c0.013,0.03,0.024,0.061,0.036,0.092
	C162.846,186.88,168.05,190.663,174.121,190.663z M57.449,190.663h105.238c-2.16-1.722-3.925-3.92-5.135-6.433H80.952
	c-0.024,0.001-0.049,0.001-0.075,0h-18.58C61.2,186.737,59.528,188.937,57.449,190.663z M46.37,190.663
	c5.855,0,10.843-3.781,12.651-9.03c0.01-0.032,0.021-0.063,0.032-0.094c0.449-1.336,0.692-2.765,0.692-4.25
	c0-7.375-6-13.375-13.375-13.375s-13.375,6-13.375,13.375c0,1.473,0.239,2.891,0.681,4.217c0.021,0.053,0.039,0.106,0.055,0.161
	C35.548,186.898,40.527,190.663,46.37,190.663z M123.722,180.23h32.45c-0.279-1.27-0.426-2.589-0.426-3.942
	c0-4.909,1.935-9.374,5.082-12.673l-21.061,0.46L123.722,180.23z M82.57,180.23h35.514l15.92-16.029l-54.276,1.186L82.57,180.23z
	 M63.496,180.23h15.002l-2.825-14.755l-16.252,0.355c2.691,3.061,4.324,7.072,4.324,11.458
	C63.745,178.29,63.659,179.274,63.496,180.23z M15.545,180.23h13.698c-0.164-0.956-0.249-1.939-0.249-2.942
	c0-9.581,7.794-17.375,17.375-17.375c2.936,0,5.704,0.732,8.132,2.023l20.655-0.451l-1.116-11.026l-49.188,3.993l-13.815,3.859
	l-2.121,4.877c-0.168,0.387-0.454,0.71-0.817,0.925l-4.1,2.42v2.255l5.935,2.793c0.357,0.168,0.657,0.438,0.861,0.776L15.545,180.23
	z M174.121,157.913c9.967,0,18.106,7.977,18.369,17.882l8.31-3l-0.878-7.841c-0.658-5.88-5.575-10.265-11.472-10.265
	c-0.057,0-0.112,0-0.169,0.001l-31.854,0.453c-2.987,0.013-5.542-2.266-5.788-5.255l-1.178-14.292l-0.144-0.032l-0.193,0.006
	c-0.3,0.099-0.644,0.125-0.962,0.07v12.336c0.004,0.184-0.018,0.37-0.067,0.553c-0.04,0.151-0.098,0.296-0.171,0.431l-5.69,11.059
	l24.452-0.534C168.958,158.475,171.475,157.913,174.121,157.913z M188.451,150.688c7.94,0,14.56,5.904,15.446,13.82l0.771,6.89
	l3.803-1.373l2.657-2.51l1.588-6.026l-1.292-0.738c-0.534-0.305-0.897-0.838-0.987-1.446l-0.85-5.801
	c-0.003-0.016-0.005-0.032-0.007-0.048l-0.692-4.723l-8.714-1.927c-0.685,1.319-1.825,2.322-3.382,2.322
	c-1.613,0-37.127-0.229-38.638-0.239c-1.082-0.007-1.962-0.873-1.987-1.955l-0.223-9.905l-2.397-0.53l1.077,13.059
	c0.075,0.901,0.827,1.621,1.745,1.583l31.854-0.453C188.299,150.689,188.375,150.688,188.451,150.688z M77.976,149.613l1.193,11.785
	l58.514-1.278l5.106-9.924l-56.017,2.942c-0.886,0.039-1.706-0.502-1.996-1.346c-0.291-0.844,0.013-1.778,0.745-2.29l9.358-6.547
	L77.976,149.613z M110.556,136.869l-17.021,11.908l50.625-2.66v-10.379L110.556,136.869z M199.331,142.524l11.767,2.602
	c0.535,0.118,0.984,0.446,1.263,0.891l0.68-1.647v-9.732l-1-4.634l-9.055,5.264c-0.021,0.012-0.041,0.024-0.062,0.036l-9.99,5.808
	l6.323,1.398C199.283,142.513,199.307,142.518,199.331,142.524z M160.122,144.903c5.946,0.038,23.977,0.154,32.356,0.203
	l-5.39-1.191c-0.014-0.003-0.028-0.006-0.042-0.009l-27.082-5.986L160.122,144.903z M169.749,135.985l17.42,3.851l12.296-7.148
	l-0.813-2.095l-12.974,7.606c-0.85,0.498-1.934,0.303-2.559-0.458l-4.167-5.083c-0.293-0.358-0.453-0.806-0.453-1.268v-11h-3.417
	v10.75c0,0.646-0.312,1.251-0.836,1.626L169.749,135.985z M143.167,127.473v4.295l2.896-0.097c0.019-0.001,0.037-0.001,0.055-0.002
	l0.382-0.013v-4.184H143.167z M174.121,187.85c-6.375,0-11.563-5.187-11.563-11.563s5.187-11.563,11.563-11.563
	s11.563,5.187,11.563,11.563S180.496,187.85,174.121,187.85z M174.121,168.725c-4.17,0-7.563,3.393-7.563,7.563
	s3.393,7.563,7.563,7.563s7.563-3.393,7.563-7.563S178.291,168.725,174.121,168.725z M46.37,187.475
	c-5.617,0-10.188-4.57-10.188-10.188S40.752,167.1,46.37,167.1s10.188,4.57,10.188,10.188S51.987,187.475,46.37,187.475z
	 M46.37,171.1c-3.412,0-6.188,2.776-6.188,6.188s2.776,6.188,6.188,6.188s6.188-2.776,6.188-6.188S49.781,171.1,46.37,171.1z
	 M25.583,171.1H13.792c-1.104,0-2-0.896-2-2v-6.388c0-1.104,0.896-2,2-2h11.792c1.104,0,2,0.896,2,2v6.388
	C27.583,170.205,26.688,171.1,25.583,171.1z M15.792,167.1h7.792v-2.388h-7.792V167.1z M71.85,135.557H61.745c-1.104,0-2-0.896-2-2
	s0.896-2,2-2H71.85c1.104,0,2,0.896,2,2S72.955,135.557,71.85,135.557z M123.911,97.879h-14.642c-1.104,0-2-0.896-2-2s0.896-2,2-2
	h14.642c1.104,0,2,0.896,2,2S125.016,97.879,123.911,97.879z M74.573,78.379H23.612c-1.104,0-2-0.896-2-2s0.896-2,2-2h50.961
	c1.104,0,2,0.896,2,2S75.677,78.379,74.573,78.379z M190.496,59.879h-27.029c-1.104,0-2-0.896-2-2s0.896-2,2-2h27.029
	c1.104,0,2,0.896,2,2S191.6,59.879,190.496,59.879z M48.133,55.879H38.027c-1.104,0-2-0.896-2-2s0.896-2,2-2h10.106
	c1.104,0,2,0.896,2,2S49.238,55.879,48.133,55.879z M116.292,53.246H79.767c-0.048,0-0.096-0.001-0.143-0.005
	c-0.132,0.003-0.264,0.005-0.396,0.005c-8.51,0-15.434-6.924-15.434-15.434s6.924-15.434,15.434-15.434
	c0.571,0,1.136,0.031,1.691,0.092c0.19-0.06,0.392-0.092,0.602-0.092h41.396c1.104,0,2,0.896,2,2s-0.896,2-2,2H89.584
	c2.65,2.403,4.464,5.712,4.948,9.434h7.686c1.104,0,2,0.896,2,2s-0.896,2-2,2h-7.686c-0.484,3.721-2.298,7.031-4.949,9.434h26.708
	c1.104,0,2,0.896,2,2S117.396,53.246,116.292,53.246z M79.228,26.379c-6.305,0-11.434,5.129-11.434,11.434
	s5.129,11.434,11.434,11.434c6.075,0,11.058-4.762,11.413-10.749c-0.078-0.214-0.12-0.444-0.12-0.685s0.042-0.471,0.12-0.685
	C90.285,31.141,85.302,26.379,79.228,26.379z"/>
<g>
</g>
<g>
</g>
<g>
</g>
<g>
</g>
<g>
</g>
<g>
</g>
<g>
</g>
<g>
</g>
<g>
</g>
<g>
</g>
<g>
</g>
<g>
</g>
<g>
</g>
<g>
</g>
<g>
</g>
</svg>
